<svg xmlns:svg="http://www.w3.org/2000/svg" xmlns="http://www.w3.org/2000/svg" width="83.5" height="79.5" viewBox="0 0 296 281.7" version="1.1"><style>.s0{fill:#000;}.s1{fill:#fff;}.s2{fill:none;stroke-width:0.1;stroke:#1a1a1a;}</style><g transform="translate(-141.5377,-107.11443)"><path d="m318.3 107.1 0 0c-0.6 0-1.2 0.1-2 0.2-1 0.1-2.1 0.4-3.2 0.9-1.1 0.4-2.2 1-3.2 1.8-1 0.7-1.9 1.6-2.6 2.6-0.4 0.5-0.7 1.1-0.9 1.6-0.3 0.6-0.5 1.2-0.6 1.8-0.2 1.1-0.3 2.2 0 3.4 0.2 1.3 0.7 2.7 1.5 4.5 0.8 1.8 1.9 4 3.5 6.7 1.6 2.7 3.5 5.9 6 9.9 2.8 4.4 5.6 8.6 7.6 11.6 1 1.5 1.8 2.8 2.4 3.7 0.5 0.9 0.8 1.4 0.7 1.5-0.6 0.4-1.4 1-1.9 1.4-0.6 0.4-1 0.8-1.1 0.6-2-1.8-6.9-5.4-13.5-10.8-4.5-3.8-8.4-6.9-11.9-9.4-1.7-1.3-3.4-2.4-4.9-3.4-1.5-1-3-1.8-4.4-2.5-1.4-0.7-2.7-1.3-3.9-1.7-1.2-0.4-2.4-0.7-3.5-0.9-1.1-0.2-2.2-0.2-3.2-0.1-1 0.1-2.1 0.3-3.1 0.6-1.2 0.4-2.3 0.9-3.3 1.5-1 0.6-1.9 1.3-2.7 2.1-0.8 0.8-1.5 1.6-2 2.5-0.5 0.9-1 1.9-1.3 2.9-0.3 1-0.5 2.1-0.5 3.3 0 1.1 0.1 2.3 0.3 3.5 0.3 1.2 0.7 2.4 1.2 3.7 0.6 1.2 1.3 2.5 2.2 3.8 1.4 2 2.8 4 4.1 5.8 1.4 1.8 2.7 3.6 4.1 5.2 1.4 1.6 2.8 3.2 4.4 4.6 1.5 1.4 3.2 2.8 4.9 4.1 1.9 1.4 3.5 2.5 5 3.4 1.5 0.9 2.7 1.6 4 2.3l3.6 2.1c1.2 0.7 2.5 1.6 3.9 2.6-0.6 1.9-1.2 3.7-1.6 5.5-0.9 3.5-1.4 7-1.6 10.4-0.1 3.3 0 6.5 0.4 9.6 0.2 1.5 0.5 3.1 0.9 4.6 0.8 3.1 1.8 6.2 3 8.9 2.4 5.6 4.2 10.3 5.6 14.5 1.4 4.2 2.4 7.8 3 11 0.6 3 1 6 1.2 8.8 0.1 2.7 0 5.2-0.2 7.9-0.6 5.7-1.3 11.5-1.6 16.8-0.3 5.8-0.4 9.3-0.7 11.6-0.2 4.2-3.7 5.8-6.4 7.5-5.2 5.7-6.2 13.1-4.5 19.5 0.1 0.2 0.2 0.3 0.3 0.4-0.2 0-0.4 0-0.6 0.1l-133.6 41.1 47.1 21.5 179.9-40c2.4 0.2 5 0.3 7.2-0.5 5.2-0.8 8.6-6.3 12.2-7.1 1.1-0.2 2.3-0.6 3.4-1.2 1.1-0.6 2.1-1.3 3-2.2 0.9-0.8 1.6-1.8 2.1-2.7 0.3-0.5 0.5-0.9 0.6-1.4 0.1-0.5 0.2-0.9 0.2-1.4 0-0.7-0.2-1.8-0.4-3-0.5-2-1.3-3.8-1.7-5.7-0.3-1.7 0.3-3.3 0.9-4.7 1.4-2.5 3.2-4.8 4.4-7.3 1.5-2.8 2.5-5.9 3.4-8.7 1.5-5.6 2.1-11.9 2.3-17 0.2-4.6 0.3-9.8 0.3-15.8 0.1-4.4 0-8.8 0.7-12.8 0.4-2.9 1.6-5.5 2-8.2 0.7-5.5 1.5-11.1 1.9-16.8 0.2-2.9 0.4-5.8 0.5-8.7 0.1-6.1-0.2-12-1.4-17.7-1.5-7.1-4.9-14-8.8-19.5-6.3-9.2-14.1-17.3-23-22.7-9.8-5.9-20.8-8.8-31.4-9.9-5.1-0.4-9.7-0.4-14.8-0.3-0.9-0.7-1.8-1.8-2.8-3.1-1-1.4-2.1-3-3.3-4.7-1.2-1.7-2.4-3.6-3.7-5.4-1.3-1.8-2.7-3.6-4.1-5.1-2-2.6-4-5.1-6-7.4-2-2.3-3.9-4.4-5.7-6.3-1.8-1.9-3.5-3.5-4.9-4.8-1.5-1.3-2.8-2.3-3.8-3-1.4-0.9-2.4-1.4-3.4-1.7-0.5-0.1-1-0.2-1.6-0.2z" fill="#666"/><path d="m190.3 154.5c-3.8 0.1-5.9 0-7.4-0.5-2-0.7-2.9-1.8-3.9-4.8-0.7-2.2-1.1-2.8-1.8-3.3-0.8-0.5-1.3-0.7-3.4-0.8-2.3-0.1-7.8-0.6-11-1-3-0.4-3.8-0.4-4.9-0.3-0.9 0-0.9 0.1-1.1 0.3-0.3 0.4-0.2 0.7 0.5 3.3 0.7 2.8 0.9 3.6 0.9 4.7 0 1.1 0 1.2-0.3 1.4-0.4 0.2-0.7 0.1-1.1-0.3-0.6-0.9-0.9-2-0.7-2.5 0.1-0.2 0.1-0.3-0.3-2.1-1-4.3-1-5.7-0.1-6.7 1.4-1.7 9.2-4 16.6-4.9 1.4-0.2 2.9-0.4 3.3-0.5 0.4-0.1 2.9-0.8 5.6-1.6 8.2-2.4 9.8-2.7 15.5-3.3 4.5-0.5 6.3-0.5 10.3-0.2 2.5 0.2 3.7 0.2 5.1-0.1 1.2-0.2 2.1-0.5 5.1-1.8 4.3-1.8 8.1-3 11.1-3.3 0.9-0.1 1.9-0.2 2.3-0.2 0.7 0 4.6 0.5 5 0.6 0.1 0 0.2 0.2 0.3 0.4 0.2 0.5 0.9 7.5 0.9 7.9 0 0.2-0.1 0.7-0.2 1.2-0.1 0.4-0.2 1.3-0.2 1.9-0.5 5-1.3 7.1-3.5 8.4-1.2 0.7-2.3 1.2-4.1 1.5-1.3 0.3-4.8 0.3-6.4 0.1-2.5-0.3-5.6-3.1-7.2-6.5-0.4-0.7-0.4-1-0.5-1.8-0.1-0.9-0.1-1 0.1-1.5 0.2-0.6 0.2-1.1-0.1-1.6-0.2-0.3-0.3-0.3-0.6-0.4-0.8-0.1-2 0.4-2.4 1-0.2 0.3-0.4 1-0.9 3-1.8 8-3.4 10.2-8.4 12-3.1 1.1-8.4 2-12 2.2z" fill="#000"/><g transform="matrix(1.0082352,0,0,1.0082352,140.864,-681.53456)"><g transform="translate(-1.6610183,-56.474619)"><g transform="translate(-29.898328,-80.282547)"><path d="m84.7 1153.3c0 1.9-0.2 2.8-0.4 3.6 0 0-0.9 0-1.3 1.3-0.4 1.3-1.5 14.6-1.4 14.7 0.1 0.2 0.2 1.4 0.4 2.6 0.3 1.1 4.7 4.6 11.2 4.6 2.5 0 8 1.3 8.8 2.1-0.7 0.8 9.2 6.6 15.8 6.3 2.8 0.8 14.4-1.8 16.5-3.3 3.3-1.2 7.1-4.2 7.5-5.5 0.2-1.1 0.5-3.8-0.8-5.9-1.2-1.7-3.2-2.9-4.8-3-6-1.4-8.3-2.8-11.8-4.8l-1.6-1 0.2-0.5-0.7-0.5-0.5 0.4-1.2-1 0-0.5-1.5-1-0.4 0.2-0.9-1 0.4-0.6-2.1-1.5-0.5 0.4-0.8-0.9 0-0.9-2.1-1.8-0.5 0.3-1-1.2-1.1-2.1-1.9-1.3-2.2-0.1-1.5 0.4-2.6-0.4-2.5 1.7c-1 1.8-2.2 2.4-2.9 2.3-2.4-1.7-4.8-3.8-6.3-4.6l-3.7 1c-0.6 0.6-1.2 1.1-1.8 1.7z" fill="#1a1a1a"/><path d="m116.7 1161.5c-0.8 0.6-2.1 0.4-3.3 0.6-0.2 0.7-0.6 1.6-1 2.1-0.1 0.4-0.8-0.2-0.6-0.7 0.1-0.4 0.3-1 0.3-1-1.7 0.7-3.7 1.9-4.2 2.5-0.6 0.5-1-0.9-0.9-1.5 0.4-0.1 0.6-1.3 0.2-1.2l-10.5 12.8 3.5 1.6c0.9-5.8 10-12.9 10.2-12.7 1.2-0.1 1.2 0.4 3.4 0.6 0.4 0.1 0.9-0.2 1.4-0.5 0.4-1 1.6-1.8 2.5-2.8l1 1c-0.2 0.1-0.3 0.2-0.4 0.6 0 0.6 0.6 0.6 1.4 0.6 0 0.2 0.3 0.3 0 0.7-2.9 1.1-4.7 1-6.9 2.3l-0.7 2.2 2.4 1.3c0 0 1.3-0.3 1.3-0.8 0-0.5 0.4-0.9 0.4-0.9l1.3 0.3 1.6-2.1-2.6 1.1-1.9 1.3c-0.7-0.2-0.5-0.8-0.5-1.4l1-0.5c0.3-0.8 1.7-1.3 3.1-1.6l1.9-0.7 0.6-0.9 3.5 2.3c0 0.3-2.6 2.1-3.6 2.8l-0.4 0.6 1.9 0.1 1.5-1.4c0.2-0.3 0.5-0.6 0.8-1 0-0.3 0-0.7-0.2-0.8-0.1-0.1 0-0.1 0-0.2l2.6 1.5c3.5 1.9 7 3.1 11.9 4.2 1.6 1.4 3.5 2.8 1.6 4.3-3.1 2.6-5.6 2.6-8.4 3.7l-6.9 2c-2.8 0.2-5.4 0.7-8.2 0.5-0.1-0.4 0.4-1 0.8-1.6l2.6-3.1c0.2-0.6-0.2-0.1-0.7 0.2-0.7 0.9-1.2 1.2-1.6 1.4l-1.5 1.5c-0.3 0.6-1.5 0.9-1.7 0.7 0.7 0.4 0.9 1.8 0.6 2.9-0.2 0.7-0.5 0.6-1.5 0.5-45.9-13.2-13.8-39.2 2.9-23.4z" fill="#fff"/></g><g transform="translate(-29.898328,-80.282547)"><path d="m55.9 1163.1c-0.3 0.9-0.3 0.9-0.6 3.6 0 0-0.6 0.1-1.3 1.2-0.7 1.1-1.5 14.6-1.4 14.7 0.1 0.2 0.2 1.4 0.4 2.6 0.3 1.1 4.7 4.7 11.2 4.6 2.2-0.1 7.4 1.2 8.8 2.1 0.9 1.6 9.2 7 15.8 6.3 2.8 0.8 14.4-1.8 16.5-3.3 3.3-1.2 7.1-4.2 7.5-5.5 0.2-1.1 0.5-3.8-0.8-5.9-1.2-1.7-3.2-2.9-4.8-3-6-1.4-8.3-2.8-11.8-4.8l-1.6-1 0.2-0.5-0.7-0.5-0.5 0.4-1.2-1 0-0.5-1.5-1-0.4 0.2-0.9-1 0.4-0.6-2.1-1.5-0.5 0.4-0.8-0.9 0-0.9-2.1-1.8-0.5 0.3-1-1.2c-0.2-1.2-0.8-1.9-1.7-2.2-1.1-1.1-1.6-1.2-2.9-1.2-1.2-0.3-1.2 0.2-1.5 0.5-1.6-0.4-3.6-0.6-4.3 0.3-2 1.1-3.1 4.3-4.7 2.7-2.4-1.8-3.2-3.3-6.5-4.3-2.3 0.3-3.7 1.3-4.7 2.7z" fill="#000"/><path d="m54 1167.7c-0.3 0.9 3.7 7.1 5.6 6.8 1 0.5 5.8-3 5.8-3 7.4-9.5 15.6-2 20.7-1.5 0.1 0.5 0.9 0.8 1.5 0.8 0.3 0 0.1 0.6 0.1 0.6-0.8 0.6-2.1 0.4-3.3 0.6-0.2 0.7-0.6 1.6-1 2.1-0.1 0.4-0.8-0.2-0.6-0.7 0.1-0.4 0.3-1 0.3-1-1.7 0.7-3.7 1.9-4.2 2.5-0.6 0.5-1-0.9-0.9-1.5l3.1-1.9c-0.4 0.2-1.3 0.2-1.4-0.3 0-2.4-2.1-0.6-3.6-0.1 0.8-0.1 1.3 0 1.6 0.2l0.5 0.9-6.2 6.8-4.4 5.9 3.5 1.6c0.9-5.8 10-12.9 10.2-12.7 1.2-0.1 1.2 0.4 3.4 0.6 0.4 0.1 0.9-0.2 1.4-0.5 0.4-1 1.6-1.8 2.5-2.8l1 1c-0.2 0.1-0.3 0.2-0.4 0.6 0 0.6 0.6 0.6 1.4 0.6 0 0.2 0.3 0.3 0 0.7-2.9 1.1-4.7 1-6.9 2.3l-0.7 2.2 2.4 1.3c0 0 1.3-0.3 1.3-0.8 0-0.5 0.4-0.9 0.4-0.9l1.3 0.3 1.6-2.1-2.6 1.1-1.9 1.3c-0.7-0.2-0.5-0.8-0.5-1.4l1-0.5c0.3-0.8 1.7-1.3 3.1-1.6l1.9-0.7 0.6-0.9 3.5 2.3c0 0.3-2.6 2.1-3.6 2.8l-0.4 0.6 1.9 0.1 1.5-1.4c0.2-0.3 0.5-0.6 0.8-1 0-0.3 0-0.7-0.2-0.8-0.1-0.1 0-0.1 0-0.2l2.6 1.5c3.5 1.9 7 3.1 11.9 4.2 1.6 1.4 3.5 2.8 1.6 4.3-3.1 2.6-5.6 2.6-8.4 3.7l-6.9 2c-2.8 0.2-5.4 0.7-8.2 0.5-0.1-0.4 0.4-1 0.8-1.6l2.6-3.1c0.2-0.6-0.2-0.1-0.7 0.2-0.7 0.9-1.2 1.2-1.6 1.4l-1.5 1.5c-0.3 0.6-1.5 0.9-1.7 0.7 0.7 0.4 0.9 1.8 0.6 2.9-0.2 0.7-0.5 0.6-1.5 0.5-2.6-1-4.7-2.7-7.9-2.9-1.8-0.3-2.1-0.7-2.7-1.1-2.7-1.5-5.4-3-9.1-4.3-1-0.2-2.4-0.7-3-0.5-0.8 0.8 0.6 1.1 1.3 1.9-0.5 0.5-1.8-0.2-2.7-0.3-3.9 0.3-6.6-1.6-6.3-2.1-1.2-1.2-1-2.1-1.4-3.2 0.7-7.4 0.6-9.2 1.1-14.5z" fill="#fff"/><path d="m71.6 1186.1c-0.3-1.3 4-8.3 9.6-12 0.9-0.4 0.1-0.3 2.2 0.4" style="fill:none;stroke-dasharray:0.4;stroke-width:0.1;stroke:#333"/><path d="m60.9 1176.2c1.2 0.1 8.1-5.3 9.7-5.4 4 1.3 2.9 2.7 3.2 2.7-1.5 1.3-6.9 6.2-7.2 10.5" style="fill:none;stroke-dasharray:0.3;stroke-width:0.2;stroke:#000"/><path d="m60.7 1174.9c3-2.2 6.5-2.7 5.6-5.8" style="fill:none;stroke-dasharray:0.4;stroke-width:0.1;stroke:#000"/><path d="m80.7 1181.8c0 0-3.4 3-3.2 3.9 0.1 0.7 2.2-1.4 2.2-1.4 0.7-1.1 1.2-1.6 1.6-2.1M83.1 1183.1 83.1 1183.1c-0.2-0.1-3.4 5-2.5 5.5 1.2 0.1 1.3-3.1 2.7-4.4 0.1-0.3 0.2-0.5 0.4-0.7M85.5 1183.8c0 0-1.6 6.3-1.1 6.5 0.5 0.7 1.4-4.6 1.5-4.7l0.3-1.3" class="s2" class="s2"/><path d="m82.7 1177.5c-0.2 1.3-0.5 2 0.4 2.2 3.3 2.7 5.4-1.7 5.3-1.1" style="fill:none;stroke-dasharray:0.3;stroke-width:0.1;stroke:#333"/><path d="m60.6 1181.8c-0.9-0.6-5.2-8-6.1-9.8 1.1 1.6 3.6 5 4.8 6.6 0.3 0.5 1.1 2.4 1.2 3.2zM89.9 1180.3 89.9 1180.3c-0.2 1.7 0.6 5.8 6.8 5.5 1.9 0.2 10.6-0.9 12.2-3.8-5.7 4.3-17.5 5.2-18.7 0z" fill="#000"/></g></g><path d="m24.2 853.8c32.7 6.7 47.2 14.4 67.9-2.3 2.3 0.6 4.6 1.2 7 1.8 19.3 5-3.3 87.8-1.9 86.8-2.6 37.4 1.9 86.8 1.9 86.8-7.6-4-37.8-1.5-38.4 5-4.3 1.6-27.9 6-46.4-1.3 3.1-2 7.1-31.2 2-85.7 0 0-32.4-30.4-3.8-87.9 2.9-1.5 9.3-3.1 11.7-3.2z" fill="#000"/></g><path d="m212.9 201.3c-3.9 0.4-8 1.5-9.9 3.7-2 2.3-3.6 7.8-4.6 16.1-1 8.6-0.6 16.6 3 21 3.5 4.2 8.8 3.8 12 2.9 3.1-0.9 4.9-2.4 6.6-5 1.9-2.8 4.5-8.1 5.5-15.4 1-7.3 0.1-14.6-2.3-18.8-2.5-4.3-6.1-4.9-10.3-4.4zm-4.1 4.6c0.6 0 0.9 0.4 1.1 1 0.1 0.4 0.1 1.9 0 4.9-0.1 3.1-0.1 4.8 0.3 4.8 0.1 0 0.3 0 0.5-0.1 0.1 0 0.2-0.1 0.3-0.1 0.3-0.2 0.6-0.3 0.8-0.4 0.2-0.1 0.8-0.1 1.6-0.1 1.6 0 2.7 1.4 3 4.5 0.5 4-0.1 6.6-0.2 14.4 0 0.7 0 1.3-0.1 1.6-0.1 0.4-0.3 0.5-0.7 0.5-0.3 0-0.7-0.6-0.8-2-0.1-0.8-0.2-2.7-0.1-6.2 0.1-3.6 0.2-5.6 0.1-6.7-0.5-1.6-1.1-2.6-1.8-2.9 0 0 0 0 0 0-1.2 0-2.1 1-2.8 3-0.3 0.9-0.7 3.4-0.9 6.9-0.2 3.5-0.3 5.8-0.4 6.5-0.1 1.6-0.4 2.4-0.9 2.5-0.4 0.1-0.6 0-0.8-0.3-0.2-0.3-0.3-1-0.3-2.3 0-0.2 0-0.5 0-0.7 0-0.5 0-1 0-1.5 0-0.8 0.1-2 0.1-2.3 0-0.5 0.1-1 0.1-1.5 0-0.5 0.1-1 0.1-1.5 0.1-1 0.1-2.1 0.2-3.1 0-0.3 0-0.5 0.1-0.8 0-0.5 0.1-1 0.1-1.6 0-0.3 0-0.5 0.1-0.8 0-0.5 0.1-1 0.1-1.5 0-0.3 0-0.5 0.1-0.8 0-0.5 0.1-1 0.1-1.5 0-0.2 0-0.5 0.1-0.7 0-0.5 0.1-1 0.1-1.4 0-0.7 0.1-1.4 0.1-2.1 0.2-3.8 0.2-5.7 0.4-6.6 0.1-0.8 0.4-1.1 0.8-1.1 0 0 0 0 0 0z" fill="#800000"/></g></svg>