/* XPM */
static char * links_32x32_xpm[] = {
"32 32 80 1",
" 	c None",
".	c #FF0000",
"+	c #D00000",
"@	c #000000",
"#	c #00D000",
"$	c #00FF00",
"%	c #F10000",
"&	c #EC0000",
"*	c #C00000",
"=	c #3E0000",
"-	c #880000",
";	c #620000",
">	c #5A0000",
",	c #3C0000",
"'	c #020000",
")	c #170000",
"!	c #500000",
"~	c #4D0000",
"{	c #6C0000",
"]	c #E40000",
"^	c #040000",
"/	c #FD0000",
"(	c #6E0000",
"_	c #030000",
":	c #CD0000",
"<	c #A90000",
"[	c #00A900",
"}	c #0000D0",
"|	c #00006E",
"1	c #000003",
"2	c #0000CD",
"3	c #0000A9",
"4	c #A9A9A9",
"5	c #D0D0D0",
"6	c #0000FF",
"7	c #000088",
"8	c #000004",
"9	c #0000FD",
"0	c #FFFFFF",
"a	c #AEAEAE",
"b	c #0A0A0A",
"c	c #8D8D8D",
"d	c #747474",
"e	c #9D9D9D",
"f	c #2B2B2B",
"g	c #B3B3B3",
"h	c #D2D2D2",
"i	c #C8C8C8",
"j	c #636363",
"k	c #DEDEDE",
"l	c #CFCFCF",
"m	c #040404",
"n	c #F3F3F3",
"o	c #D5D5D5",
"p	c #1F1F1F",
"q	c #FEFEFE",
"r	c #0000FC",
"s	c #000055",
"t	c #0000BD",
"u	c #0000FE",
"v	c #F5F5F5",
"w	c #BEBEBE",
"x	c #666666",
"y	c #070707",
"z	c #202020",
"A	c #000064",
"B	c #000033",
"C	c #00002C",
"D	c #000010",
"E	c #000018",
"F	c #000027",
"G	c #242424",
"H	c #1B1B1B",
"I	c #030303",
"J	c #363636",
"K	c #000052",
"L	c #00001A",
"M	c #000015",
"N	c #161616",
"O	c #5D5D5D",
"..............+@@#$$$$$$$$$$$$$$",
"..............+@@#$$$$$$$$$$$$$$",
"...%&&&&&&&&&&*@@#$$$$$$$$$$$$$$",
"...=@@@@@@@@@@@@@#$$$$$$$$$$$$$$",
"...-;>,'@@@@)!~@@#$$$$$$$$$$$$$$",
".......{@@@@].+@@#$$$$$$$$$$$$$$",
".......-@@@^/.+@@#$$$$$$$$$$$$$$",
".......-@@@^/.+@@#$$$$$$$$$$$$$$",
".......-@@@^/.+@@#$$$$$$$$$$$$$$",
".......-@@@^/.+@@#$$$$$$$$$$$$$$",
".......-@@@^/.+@@#$$$$$$$$$$$$$$",
".......-@@@^/.+@@#$$$$$$$$$$$$$$",
".......-@@@^/.+@@#$$$$$$$$$$$$$$",
".......-@@@^/.+@@#$$$$$$$$$$$$$$",
"+++++++(@@@_:+<@@[##############",
"@@@@@@@@@@@@@@@@@@@@@@@@@@@@@@@@",
"@@@@@@@@@@@@@@@@@@@@@@@@@@@@@@@@",
"}}}}}}}|@@@12}3@@455555555555555",
"66666667@@@896}@@500000000000000",
"66666667@@@896}@@50000000abc0000",
"66666667@@@896}@@50000000d@e0000",
"66666667@@@896}@@50000000f@g0000",
"66666667@@@896}@@5000000h@@i0000",
"66666667@@@896}@@5000000j@@k0000",
"66666667@@@896}@@500000lm@@n0000",
"66666667@@@896}@@50000op@@bq0000",
"666666rs@@@@tu}@@50vwxy@@@z00000",
"666ABCD@@@@@@EF@@GHI@@@@@@J00000",
"666KLLLLLLLLLLM@@NHHHHHHHHO00000",
"66666666666666}@@500000000000000",
"66666666666666}@@500000000000000",
"66666666666666}@@500000000000000"};
