/* XPM */
static char * links_16x16_2_xpm[] = {
"16 16 59 1",
" 	c None",
".	c #FF0000",
"+	c #680000",
"@	c #006800",
"#	c #00FF00",
"$	c #CB0000",
"%	c #760000",
"&	c #300000",
"*	c #E10000",
"=	c #AE0000",
"-	c #6A0000",
";	c #000000",
">	c #920000",
",	c #470000",
"'	c #C30000",
")	c #020000",
"!	c #FE0000",
"~	c #4F0000",
"{	c #010000",
"]	c #670000",
"^	c #2A0000",
"/	c #002A00",
"(	c #000068",
"_	c #00004F",
":	c #000001",
"<	c #000067",
"[	c #00002A",
"}	c #2A2A2A",
"|	c #686868",
"1	c #0000FF",
"2	c #0000C3",
"3	c #000002",
"4	c #0000FE",
"5	c #FFFFFF",
"6	c #EBEBEB",
"7	c #A5A5A5",
"8	c #A7A7A7",
"9	c #545454",
"0	c #4D4D4D",
"a	c #6A6A6A",
"b	c #B0B0B0",
"c	c #010101",
"d	c #7F7F7F",
"e	c #0000D8",
"f	c #000097",
"g	c #000058",
"h	c #000075",
"i	c #00003E",
"j	c #3D3D3D",
"k	c #848484",
"l	c #494949",
"m	c #020202",
"n	c #959595",
"o	c #0000D4",
"p	c #00008D",
"q	c #000039",
"r	c #393939",
"s	c #8D8D8D",
"t	c #D6D6D6",
".......+@#######",
".$%%%%%&@#######",
".*=-;;>,@#######",
"...';)!+@#######",
"...';)!+@#######",
"...';)!+@#######",
"...';)!+@#######",
"+++~;{]^/@@@@@@@",
"(((_;:<[}|||||||",
"1112;34(|5556755",
"1112;34(|5558955",
"1112;34(|5550a55",
"1112;34(|55bcd55",
"1efg;;hijklm;n55",
"1opppppqrsssst55",
"1111111(|5555555"};
