/* XPM */
static char * links_xpm[] = {
"16 16 6 1",
" 	c None",
".	c #FF0000",
"+	c #000000",
"@	c #00FF00",
"#	c #0800FF",
"$	c #FFFFFF",
".......++@@@@@@@",
".......++@@@@@@@",
"..+++++++@@@@@@@",
"....++.++@@@@@@@",
"....++.++@@@@@@@",
"....++.++@@@@@@@",
"....++.++@@@@@@@",
"++++++++++++++++",
"++++++++++++++++",
"####++#++$$$$$$$",
"####++#++$$$$$$$",
"####++#++$$$$+$$",
"####++#++$$$++$$",
"##++++++++++++$$",
"#######++$$$$$$$",
"#######++$$$$$$$"};
